<?xml version="1.0" encoding="UTF-8" standalone="no" ?>
<!DOCTYPE svg PUBLIC "-//W3C//DTD SVG 1.1//EN" "http://www.w3.org/Graphics/SVG/1.1/DTD/svg11.dtd">
<svg xmlns="http://www.w3.org/2000/svg" xmlns:xlink="http://www.w3.org/1999/xlink" version="1.1" width="20" height="20" viewBox="0 0 640 640" xml:space="preserve">
<desc>Created with Fabric.js 5.3.0</desc>
<defs>
</defs>
<g transform="matrix(2.1903097955 0 0 2.1903097955 152.2542346862 156.4665719089)" id="0_K5lget346A1CXrAKyrZ"  >
<path style="stroke: rgb(121,238,11); stroke-width: 0; stroke-dasharray: none; stroke-linecap: butt; stroke-dashoffset: 0; stroke-linejoin: miter; stroke-miterlimit: 4; fill: rgb(62,60,65); fill-rule: nonzero; opacity: 1;"  transform=" translate(0, 0)" d="M -65.75976 -37.86026 C -65.75976 -53.26873 -53.26873 -65.75977 -37.86025 -65.75977 L 37.86026999999999 -65.75977 L 37.86026999999999 -65.75977 C 53.268739999999994 -65.75977 65.75977999999999 -53.26874 65.75977999999999 -37.860260000000004 L 65.75977999999999 37.86025999999999 L 65.75977999999999 37.86025999999999 C 65.75977999999999 53.26872999999999 53.26874999999999 65.75976999999999 37.86026999999999 65.75976999999999 L -37.86025 65.75976999999999 L -37.86025 65.75976999999999 C -53.26872 65.75976999999999 -65.75976 53.26873999999999 -65.75976 37.86025999999999 z" stroke-linecap="round" />
</g>
<g transform="matrix(2.1903097955 0 0 2.1903097955 152.2542346862 488.8923604714)" id="FkOUerlPpJl_pYULJRFke"  >
<path style="stroke: rgb(121,238,11); stroke-width: 0; stroke-dasharray: none; stroke-linecap: butt; stroke-dashoffset: 0; stroke-linejoin: miter; stroke-miterlimit: 4; fill: rgb(62,60,65); fill-rule: nonzero; opacity: 1;"  transform=" translate(0, 0)" d="M -65.75976 -37.86026 C -65.75976 -53.26873 -53.26873 -65.75977 -37.86025 -65.75977 L 37.86026999999999 -65.75977 L 37.86026999999999 -65.75977 C 53.268739999999994 -65.75977 65.75977999999999 -53.26874 65.75977999999999 -37.860260000000004 L 65.75977999999999 37.86025999999999 L 65.75977999999999 37.86025999999999 C 65.75977999999999 53.26872999999999 53.26874999999999 65.75976999999999 37.86026999999999 65.75976999999999 L -37.86025 65.75976999999999 L -37.86025 65.75976999999999 C -53.26872 65.75976999999999 -65.75976 53.26873999999999 -65.75976 37.86025999999999 z" stroke-linecap="round" />
</g>
<g transform="matrix(2.1903097955 0 0 2.1903097955 488.5983336718 488.8923604715)" id="0gTkQPWZgOWWaaPTQv5es"  >
<path style="stroke: rgb(121,238,11); stroke-width: 0; stroke-dasharray: none; stroke-linecap: butt; stroke-dashoffset: 0; stroke-linejoin: miter; stroke-miterlimit: 4; fill: rgb(62,60,65); fill-rule: nonzero; opacity: 1;"  transform=" translate(0, 0)" d="M -65.75976 -37.86026 C -65.75976 -53.26873 -53.26873 -65.75977 -37.86025 -65.75977 L 37.86026999999999 -65.75977 L 37.86026999999999 -65.75977 C 53.268739999999994 -65.75977 65.75977999999999 -53.26874 65.75977999999999 -37.860260000000004 L 65.75977999999999 37.86025999999999 L 65.75977999999999 37.86025999999999 C 65.75977999999999 53.26872999999999 53.26874999999999 65.75976999999999 37.86026999999999 65.75976999999999 L -37.86025 65.75976999999999 L -37.86025 65.75976999999999 C -53.26872 65.75976999999999 -65.75976 53.26873999999999 -65.75976 37.86025999999999 z" stroke-linecap="round" />
</g>
<g transform="matrix(2.1903097955 0 0 2.1903097955 488.5983336719 156.4665719089)" id="dzUe13dI02YwIyrJu4VEV"  >
<path style="stroke: rgb(121,238,11); stroke-width: 0; stroke-dasharray: none; stroke-linecap: butt; stroke-dashoffset: 0; stroke-linejoin: miter; stroke-miterlimit: 4; fill: rgb(62,60,65); fill-rule: nonzero; opacity: 1;"  transform=" translate(-65.75977, -65.75977)" d="M 0 27.89951 C 0 12.49104 12.49103 0 27.89951 0 L 103.62002999999999 0 C 119.02849999999998 0 131.51953999999998 12.49103 131.51953999999998 27.89951 L 131.51953999999998 103.62002999999999 C 131.51953999999998 119.02849999999998 119.02850999999998 131.51953999999998 103.62002999999999 131.51953999999998 L 27.899509999999992 131.51953999999998 C 12.491039999999993 131.51953999999998 -7.105427357601002e-15 119.02850999999998 -7.105427357601002e-15 103.62002999999999 z M 25.62633 88.86603 C 25.62633 98.26988 33.24966 105.89321 42.65351 105.89321 L 88.86606 105.89321 C 98.26991000000001 105.89321 105.89324 98.26988 105.89324 88.86603 L 105.89324 42.65349 C 105.89324 38.1376 104.09931 33.80667 100.90609 30.61345 C 97.71287000000001 27.42023 93.38194 25.6263 88.86605 25.6263 L 42.6535 25.6263 C 38.13761 25.6263 33.80668 27.42023 30.613460000000003 30.61345 C 27.420240000000003 33.80667 25.626310000000004 38.1376 25.626310000000004 42.65349 z" stroke-linecap="round" />
</g>
</svg>